# Blender v2.71 (sub 0) OBJ File: 'cornellbox.blend'
# www.blender.org
mtllib cornellbox.mtl
o shortbox_leftWall.001
v 0.496781 0.600000 0.772405
v 0.691918 0.600000 0.200372
v 0.129876 0.600000 0.005671
v -0.074815 0.600000 0.567277
v -0.074815 -0.000000 0.567276
v -0.074815 0.600000 0.567277
v 0.129876 0.600000 0.005671
v 0.129876 0.000000 0.005671
v 0.496781 -0.000000 0.772404
v 0.496781 0.600000 0.772405
v -0.074815 0.600000 0.567277
v -0.074815 -0.000000 0.567276
v 0.691918 -0.000000 0.200372
v 0.691918 0.600000 0.200372
v 0.496781 0.600000 0.772405
v 0.496781 -0.000000 0.772404
v 0.129876 0.000000 0.005671
v 0.129876 0.600000 0.005671
v 0.691918 0.600000 0.200372
v 0.691918 -0.000000 0.200372
vn -0.000000 1.000000 0.000000
vn -0.939500 0.000000 -0.342400
vn -0.337800 -0.000000 0.941200
vn 0.327300 0.000000 -0.944900
vn 0.946400 -0.000000 0.322900
usemtl shortBox
s off
f 2//1 3//1 4//1
f 6//2 7//2 8//2
f 10//3 11//3 12//3
f 18//4 19//4 20//4
f 14//5 15//5 16//5
f 1//1 2//1 4//1
f 5//2 6//2 8//2
f 9//3 10//3 12//3
f 17//4 18//4 20//4
f 13//5 14//5 16//5
o backWall
v -0.990000 0.000000 -1.040000
v 1.000000 0.000000 -1.040000
v 1.000000 1.990000 -1.040000
v -1.020000 1.990000 -1.040000
vn 0.000000 -0.000000 1.000000
usemtl backWall
s off
f 22//6 23//6 24//6
f 21//6 22//6 24//6
o leftWall
v -1.010000 -0.000000 0.990000
v -0.990000 0.000000 -1.040000
v -1.020000 1.990000 -1.040000
v -1.020000 1.990000 0.990000
vn 0.999900 0.015100 0.000000
vn 0.999900 0.005000 0.009900
usemtl leftWall
s off
f 26//7 27//7 28//7
f 25//8 26//8 28//8
o ceiling
v -1.020000 1.990000 0.990000
v -1.020000 1.990000 -1.040000
v 1.000000 1.990000 -1.040000
v 1.000000 1.990000 0.990000
vn 0.000000 -1.000000 0.000000
usemtl ceiling
s off
f 30//9 31//9 32//9
f 29//9 30//9 32//9
o rightWall
v 1.000000 0.000000 -1.040000
v 1.000000 -0.000000 0.990000
v 1.000000 1.990000 0.990000
v 1.000000 1.990000 -1.040000
vn -1.000000 0.000000 0.000000
usemtl rightWall
s off
f 34//10 35//10 36//10
f 33//10 34//10 36//10
o floor
v -1.010000 -0.000000 0.990000
v 1.000000 -0.000000 0.990000
v 1.000000 0.000000 -1.040000
v -0.990000 0.000000 -1.040000
vn 0.000000 1.000000 0.000000
usemtl floor
s off
f 37//11 38//11 39//11
f 40//11 37//11 39//11
o light
v -0.240000 1.980000 0.160000
v -0.240000 1.980000 -0.220000
v 0.230000 1.980000 -0.220000
v 0.230000 1.980000 0.160000
vn 0.000000 -1.000000 0.000000
usemtl light
s off
f 42//12 43//12 44//12
f 41//12 42//12 44//12
o tallbox_shortBox
v -0.530000 1.200000 0.090000
v 0.040000 1.200000 -0.090000
v -0.140000 1.200000 -0.670000
v -0.710000 1.200000 -0.490000
v -0.530000 -0.000000 0.090000
v -0.530000 1.200000 0.090000
v -0.710000 1.200000 -0.490000
v -0.710000 0.000000 -0.490000
v -0.710000 0.000000 -0.490000
v -0.710000 1.200000 -0.490000
v -0.140000 1.200000 -0.670000
v -0.140000 0.000000 -0.670000
v -0.140000 0.000000 -0.670000
v -0.140000 1.200000 -0.670000
v 0.040000 1.200000 -0.090000
v 0.040000 0.000000 -0.090000
v 0.040000 0.000000 -0.090000
v 0.040000 1.200000 -0.090000
v -0.530000 1.200000 0.090000
v -0.530000 -0.000000 0.090000
vn 0.000000 1.000000 0.000000
vn -0.955100 0.000000 0.296400
vn -0.301100 0.000000 -0.953600
vn 0.955100 0.000000 -0.296400
vn 0.301100 -0.000000 0.953600
usemtl tallBox
s off
f 45//13 46//13 47//13
f 50//14 51//14 52//14
f 54//15 55//15 56//15
f 57//16 58//16 59//16
f 61//17 62//17 63//17
f 48//13 45//13 47//13
f 49//14 50//14 52//14
f 53//15 54//15 56//15
f 60//16 57//16 59//16
f 64//17 61//17 63//17
o backWall.001
v -0.995000 0.000000 0.990000
v 0.995000 0.000000 0.990000
v 0.995000 1.990000 0.990000
v -1.025000 1.990000 0.990000
vn 0.000000 0.000000 -1.000000
usemtl backWall.001
s off
f 68//18 67//18 66//18
f 65//18 68//18 66//18
